<svg width="350" height="417" viewBox="0 0 350 417" fill="none" xmlns="http://www.w3.org/2000/svg">
<path d="M220.001 147.231C220.001 147.231 244.291 158.577 238.971 212.901C233.651 267.225 170.691 369.992 162.711 380.267C154.731 390.543 123.251 420.883 82.0114 415.497C40.7714 410.111 19.5314 382.176 19.5314 382.176M31.9314 258.561C22.0114 247.678 -16.2086 199.502 30.5714 148.301C83.7814 90.0584 129.631 162.528 129.631 162.528M154.331 144.989C154.241 133.113 156.681 109.527 175.641 96.9889M175.641 96.9889C176.191 96.6247 176.751 96.2715 177.331 95.9294C205.271 79.2965 234.091 93.4902 245.171 102.783C256.261 112.088 262.911 120.619 266.901 125.652C270.891 130.685 288.181 164.933 294.391 172.273C300.591 179.613 340.941 214.854 347.591 251.552C354.241 288.262 337.401 307.345 332.521 317.62C327.641 327.896 308.581 350.412 288.181 361.173C267.781 371.945 234.531 371.945 211.921 361.173C198.991 355.025 190.981 347.112 186.491 341.461M175.641 96.9889C154.621 53.1053 169.791 1 169.791 1M167.471 40.6451C167.471 40.6451 190.191 15.1936 229.651 22.0476C269.111 28.9017 283.911 58.2603 283.911 58.2603C283.911 58.2603 268.431 54.8388 240.621 70.0038C212.811 85.1687 187.001 69.5182 181.721 66.5823C176.451 63.6464 168.491 52.8411 170.921 48.7022C173.351 44.5633 187.091 35.7557 213.691 38.6916C240.291 41.6274 258.471 52.8853 258.471 52.8853M190.631 43.084C190.631 43.084 195.511 51.8916 210.581 56.2954C225.651 60.6992 235.411 59.7169 235.411 59.7169M213.691 38.681C213.691 38.681 225.661 28.8909 235.421 29.8732M213.241 140.476C233.571 156.722 230.981 183.543 226.541 201.158C222.101 218.773 193.731 279.951 186.191 295.602C178.651 311.263 144.071 364.109 135.201 372.927C126.331 381.735 85.9814 427.252 34.5514 394.461C-16.8786 361.67 5.30143 303.924 8.40143 293.648C11.5014 283.373 40.3214 247.16 53.1814 232.966C66.0414 218.773 118.361 171.302 133.881 159.073C149.401 146.844 187.531 119.914 213.241 140.476ZM126.781 243.242C138.751 253.517 160.921 276.033 138.311 315.667C115.701 355.301 80.6714 336.715 71.3614 330.346C62.0514 323.978 31.0114 291.684 71.3614 251.067C95.6914 226.576 126.781 243.242 126.781 243.242Z" stroke="black" stroke-miterlimit="10"/>
</svg>
